<?xml version="1.0" encoding="iso-8859-1"?>
<!-- Generator: Adobe Illustrator 18.0.0, SVG Export Plug-In . SVG Version: 6.00 Build 0)  -->
<!DOCTYPE svg PUBLIC "-//W3C//DTD SVG 1.1//EN" "http://www.w3.org/Graphics/SVG/1.1/DTD/svg11.dtd">
<svg version="1.1" id="Capa_1" xmlns="http://www.w3.org/2000/svg" xmlns:xlink="http://www.w3.org/1999/xlink" x="0px" y="0px"
	 viewBox="0 0 452.575 452.575" style="enable-background:new 0 0 452.575 452.575;" xml:space="preserve">
<g>
	<linearGradient id="SVGID_1_" gradientUnits="userSpaceOnUse" x1="107.081" y1="355.2027" x2="120.921" y2="355.2027">
		<stop  offset="0" style="stop-color:#FCA221"/>
		<stop  offset="0.2433" style="stop-color:#F9A021"/>
		<stop  offset="0.3962" style="stop-color:#F19822"/>
		<stop  offset="0.5241" style="stop-color:#E28A23"/>
		<stop  offset="0.6383" style="stop-color:#CD7824"/>
		<stop  offset="0.7433" style="stop-color:#B35F26"/>
		<stop  offset="0.8416" style="stop-color:#924128"/>
		<stop  offset="0.9329" style="stop-color:#6B1E2B"/>
		<stop  offset="1" style="stop-color:#4A002D"/>
	</linearGradient>
	<path style="fill:url(#SVGID_1_);" d="M115.481,349.733c1.29,3.9,3.12,7.58,5.44,10.94c-4.63-0.35-9.74-0.71-13.84-1
		L115.481,349.733z"/>
	<linearGradient id="SVGID_2_" gradientUnits="userSpaceOnUse" x1="172.0968" y1="225.4677" x2="222.0365" y2="225.4677">
		<stop  offset="0" style="stop-color:#CD181F"/>
		<stop  offset="0.1746" style="stop-color:#C2171D"/>
		<stop  offset="0.4791" style="stop-color:#A61319"/>
		<stop  offset="0.875" style="stop-color:#770E12"/>
		<stop  offset="1" style="stop-color:#670C10"/>
	</linearGradient>
	<path style="fill:url(#SVGID_2_);" d="M214.411,262.923c7.37,11.73,9.4,23.07,6.08,33.89c-1.38-11-6.09-21.61-14.01-30.26
		l-21.95-23.95c-8.58-9.38-12.98-21.53-12.38-34.22c0.59-12.68,6.11-24.35,15.52-32.87c6.77-6.12,14.29-13.3,22.08-21.39
		c0.58,9.19-1.5,20.56-10.9,31.7c-5.74,6.82-8.99,15.37-9.15,24.09C189.551,219.353,192.951,228.813,214.411,262.923z"/>
	<linearGradient id="SVGID_3_" gradientUnits="userSpaceOnUse" x1="134.251" y1="337.1827" x2="154.5359" y2="337.1827">
		<stop  offset="0" style="stop-color:#06AAC1"/>
		<stop  offset="0.2669" style="stop-color:#06A7BE"/>
		<stop  offset="0.5009" style="stop-color:#089EB3"/>
		<stop  offset="0.7216" style="stop-color:#0A8EA1"/>
		<stop  offset="0.9344" style="stop-color:#0E7988"/>
		<stop  offset="0.9405" style="stop-color:#0E7887"/>
	</linearGradient>
	<path style="fill:url(#SVGID_3_);" d="M134.261,335.913c0.13-3.23,1.41-6.35,3.72-8.61c0.48-0.47,0.97-0.91,1.49-1.32l2.35,1.76
		c-0.66,0.44-1.28,0.95-1.86,1.53c-1.65,1.66-1.87,4.42-0.17,6.02c1.63,1.53,4.2,1.43,5.7-0.22c1.18-1.31,3.39-2.07,6.05-0.3
		c2.11,1.41,3.24,3.75,2.95,6.11c-0.53,4.28-4.2,7.5-8.52,7.5c-6.46,0-11.72-5.26-11.72-11.72
		C134.251,336.443,134.251,336.183,134.261,335.913z"/>
	<linearGradient id="SVGID_4_" gradientUnits="userSpaceOnUse" x1="121.891" y1="232.1723" x2="432.591" y2="232.1723">
		<stop  offset="0" style="stop-color:#06AAC1"/>
		<stop  offset="0.2586" style="stop-color:#058293"/>
		<stop  offset="0.8425" style="stop-color:#011C20"/>
		<stop  offset="1" style="stop-color:#000000"/>
	</linearGradient>
	<path style="fill:url(#SVGID_4_);" d="M432.591,187.153l-56.23,28.11c-31.93,15.97-58.43,40.63-76.65,71.31
		c-7.8,13.15-14.61,23.76-21.42,33.39l-1.3,1.84c-21.59,30.56-54.22,49.52-87.28,50.71c-24.3,0.88-39.02-0.46-47.74-4.33
		c-10.67-4.74-18.09-14.52-20.08-25.71l4.44-4.18c0.83,10.11,9.32,18.09,19.64,18.09c8.35,0,15.43-6.24,16.46-14.52
		c0.67-5.38-1.81-10.65-6.46-13.75c-4.58-3.06-10.04-3.11-14.15-0.37l-2.35-1.76c5-4.05,11.56-5.43,17.85-3.7
		c6.79,1.87,12.01,7.03,13.95,13.81l1.74,6.09c0.3,1.06,1.02,1.94,2,2.45c0.11,0.06,1.11,0.57,2.76,1.16
		c12.48,4.46,26.35-0.24,33.76-11.44l0.26-0.4c3.88-5.86,6.5-12.23,7.9-18.78c13.27-17.42,13.8-36.94,1.49-56.51
		c-20.24-32.17-23.6-41-23.48-48.62c0.13-6.87,2.71-13.64,7.27-19.06c13.59-16.13,14.14-32.7,11.86-44.4
		c14.35-15.68,29.14-34.26,41.58-55.01c-1.33,42.36-7.9,74.83-14.61,104.58c-5.28,23.4,3.86,35.18,14.45,48.82
		c2.43,3.13,4.95,6.37,7.47,9.96c16.66,23.67,10.93,56.62-12.78,73.44c-1.8,1.28-2.22,3.77-0.94,5.57c1.28,1.81,3.77,2.23,5.57,0.95
		c27.29-19.36,33.88-57.3,14.7-84.57c-2.63-3.74-5.21-7.05-7.7-10.26c-1.3-1.68-2.55-3.28-3.72-4.84
		c34.33-29.88,47.52-71.8,62.09-124.31c-1.16,31.73-8.34,61.39-11.66,73.64c-0.95,3.5-2.15,6.91-3.58,10.24l-5.01,11.63
		c-0.86,2-0.11,4.42,1.85,5.37c0.57,0.27,1.16,0.4,1.74,0.4c1.55,0,3.03-0.91,3.68-2.42l4.59-10.66c1.44,1.61,3.16,3.48,5.02,5.4
		l-14.12,16.27c-1.45,1.66-1.27,4.19,0.4,5.64c0.76,0.66,1.69,0.98,2.62,0.98c1.12,0,2.23-0.47,3.02-1.38l13.8-15.9
		c1.71,1.58,3.43,3.07,5.09,4.33l-8.72,6.34c-1.68,1.23-2.29,3.56-1.24,5.35c0.76,1.3,2.1,1.99,3.46,1.99
		c0.82,0,1.64-0.25,2.35-0.77l8.95-6.5c3.08-2.24,6.32-4.27,9.7-6.02C386.141,193.443,415.991,188.123,432.591,187.153z"/>
	<linearGradient id="SVGID_5_" gradientUnits="userSpaceOnUse" x1="121.681" y1="312.8029" x2="212.9128" y2="312.8029">
		<stop  offset="0" style="stop-color:#CD181F"/>
		<stop  offset="0.1746" style="stop-color:#C2171D"/>
		<stop  offset="0.4791" style="stop-color:#A61319"/>
		<stop  offset="0.875" style="stop-color:#770E12"/>
		<stop  offset="1" style="stop-color:#670C10"/>
	</linearGradient>
	<path style="fill:url(#SVGID_5_);" d="M209.521,286.143c5.63,13.99,4.31,30.22-4.4,43.4l-0.27,0.4
		c-5.36,8.12-15.39,11.54-24.38,8.32c-0.1-0.04-0.2-0.07-0.29-0.11l-1.06-3.7c-2.67-9.33-9.75-16.92-19.05-19.7
		c-9.71-2.91-19.96-0.47-27.29,6.46l-11.1,10.46c2.23-15.99,15.51-28.58,31.82-29.7c14.53-1.01,28.26,7.25,34.14,20.53
		c0.9,2.02,3.26,2.94,5.28,2.04c2.02-0.89,2.93-3.25,2.04-5.27c-2.57-5.79-6.34-10.8-10.93-14.8
		C190.601,300.903,201.391,294.383,209.521,286.143z"/>
	<linearGradient id="SVGID_6_" gradientUnits="userSpaceOnUse" x1="18.061" y1="258.1677" x2="205.641" y2="258.1677">
		<stop  offset="0" style="stop-color:#06AAC1"/>
		<stop  offset="0.2586" style="stop-color:#058293"/>
		<stop  offset="0.8425" style="stop-color:#011C20"/>
		<stop  offset="1" style="stop-color:#000000"/>
	</linearGradient>
	<path style="fill:url(#SVGID_6_);" d="M200.581,271.963c1.91,2.08,3.59,4.3,5.06,6.63c-9,10.11-23.85,18.11-28.98,20.7
		c-7.07-3.94-15.28-5.89-23.71-5.31c-15.42,1.07-28.64,10.45-35.2,23.67c-17.21-0.99-32.8-11.41-40.18-27.09
		c-12.09-25.68-31.77-61.14-59.51-91.88c34.17,12.36,58.4,28.04,80.11,42.09c3.95,2.56,7.68,4.98,11.43,7.35
		c1,0.63,2.15,1.39,3.44,2.25c14.14,9.39,46.6,30.94,74.99,7.89L200.581,271.963z"/>
	<path d="M452.541,183.113c0.22,1.69-0.65,3.33-2.18,4.1l-70.42,35.21c-30.56,15.28-55.92,38.87-73.35,68.24
		c-7.91,13.33-14.83,24.11-21.77,33.92l-1.3,1.84c-23.02,32.58-57.98,52.8-93.52,54.09c-4.87,0.17-9.37,0.26-13.53,0.26
		c-17.97,0-29.61-1.67-37.75-5.28c-3.62-1.61-6.93-3.68-9.89-6.14c-8.71-0.8-29.95-2.22-30.17-2.24c-1.86-0.12-3.44-1.52-3.71-3.47
		c-0.16-1.15,0.26-2.32,1.01-3.21l17.52-20.72c-0.16-2.05-0.18-4.13-0.03-6.22c0.19-2.77,0.65-5.46,1.35-8.05
		c-19.12-1.98-36.2-13.9-44.47-31.48c-13.38-28.42-36.24-69.07-69.13-101.31c-1.32-1.29-1.58-3.31-0.64-4.9
		c0.94-1.58,2.84-2.32,4.61-1.78c43.51,13.24,72.11,31.75,97.34,48.09c3.94,2.54,7.65,4.95,11.37,7.3c1.04,0.65,2.24,1.45,3.58,2.34
		c13.61,9.04,41.32,27.43,65.15,8.64l-3.98-4.34c-10.03-10.96-15.17-25.16-14.48-40c0.7-14.82,7.15-28.47,18.15-38.42
		c23.3-21.06,55.54-54.75,76.81-95.63c0.98-1.89,3.32-2.72,5.32-1.73c1.41,0.69,2.23,2.2,2.23,3.76
		c-0.02,50.99-7.45,88.19-15.06,121.93c-3.1,13.74-0.67,22.24,4.64,30.71c34.3-30.28,46.53-74.59,61.91-130.42
		c1.39-5.04,2.8-10.18,4.27-15.42c0.51-1.86,2.29-3.08,4.21-2.91c1.92,0.17,3.44,1.69,3.62,3.61c4.38,46.69-9.18,96.35-12.39,107.27
		c5.61,6.54,14.43,15.79,19.62,18.94c70.91-37.81,110.25-30.32,111.9-29.98C451.051,180.063,452.321,181.423,452.541,183.113z
		 M376.361,215.263l56.23-28.11c-16.6,0.97-46.45,6.29-87.71,27.69c-3.38,1.75-6.62,3.78-9.7,6.02l-8.95,6.5
		c-0.71,0.52-1.53,0.77-2.35,0.77c-1.36,0-2.7-0.69-3.46-1.99c-1.05-1.79-0.44-4.12,1.24-5.35l8.72-6.34
		c-1.66-1.26-3.38-2.75-5.09-4.33l-13.8,15.9c-0.79,0.91-1.9,1.38-3.02,1.38c-0.93,0-1.86-0.32-2.62-0.98
		c-1.67-1.45-1.85-3.98-0.4-5.64l14.12-16.27c-1.86-1.92-3.58-3.79-5.02-5.4l-4.59,10.66c-0.65,1.51-2.13,2.42-3.68,2.42
		c-0.58,0-1.17-0.13-1.74-0.4c-1.96-0.95-2.71-3.37-1.85-5.37l5.01-11.63c1.43-3.33,2.63-6.74,3.58-10.24
		c3.32-12.25,10.5-41.91,11.66-73.64c-14.57,52.51-27.76,94.43-62.09,124.31c1.17,1.56,2.42,3.16,3.72,4.84
		c2.49,3.21,5.07,6.52,7.7,10.26c19.18,27.27,12.59,65.21-14.7,84.57c-1.8,1.28-4.29,0.86-5.57-0.95c-1.28-1.8-0.86-4.29,0.94-5.57
		c23.71-16.82,29.44-49.77,12.78-73.44c-2.52-3.59-5.04-6.83-7.47-9.96c-10.59-13.64-19.73-25.42-14.45-48.82
		c6.71-29.75,13.28-62.22,14.61-104.58c-12.44,20.75-27.23,39.33-41.58,55.01c2.28,11.7,1.73,28.27-11.86,44.4
		c-4.56,5.42-7.14,12.19-7.27,19.06c-0.12,7.62,3.24,16.45,23.48,48.62c12.31,19.57,11.78,39.09-1.49,56.51
		c-1.4,6.55-4.02,12.92-7.9,18.78l-0.26,0.4c-7.41,11.2-21.28,15.9-33.76,11.44c-1.65-0.59-2.65-1.1-2.76-1.16
		c-0.98-0.51-1.7-1.39-2-2.45l-1.74-6.09c-1.94-6.78-7.16-11.94-13.95-13.81c-6.29-1.73-12.85-0.35-17.85,3.7
		c-0.52,0.41-1.01,0.85-1.49,1.32c-2.31,2.26-3.59,5.38-3.72,8.61c-0.01,0.27-0.01,0.53-0.01,0.75c0,6.46,5.26,11.72,11.72,11.72
		c4.32,0,7.99-3.22,8.52-7.5c0.29-2.36-0.84-4.7-2.95-6.11c-2.66-1.77-4.87-1.01-6.05,0.3c-1.5,1.65-4.07,1.75-5.7,0.22
		c-1.7-1.6-1.48-4.36,0.17-6.02c0.58-0.58,1.2-1.09,1.86-1.53c4.11-2.74,9.57-2.69,14.15,0.37c4.65,3.1,7.13,8.37,6.46,13.75
		c-1.03,8.28-8.11,14.52-16.46,14.52c-10.32,0-18.81-7.98-19.64-18.09l-4.44,4.18c1.99,11.19,9.41,20.97,20.08,25.71
		c8.72,3.87,23.44,5.21,47.74,4.33c33.06-1.19,65.69-20.15,87.28-50.71l1.3-1.84c6.81-9.63,13.62-20.24,21.42-33.39
		C317.931,255.893,344.431,231.233,376.361,215.263z M220.491,296.813c3.32-10.82,1.29-22.16-6.08-33.89
		c-21.46-34.11-24.86-43.57-24.71-53.01c0.16-8.72,3.41-17.27,9.15-24.09c9.4-11.14,11.48-22.51,10.9-31.7
		c-7.79,8.09-15.31,15.27-22.08,21.39c-9.41,8.52-14.93,20.19-15.52,32.87c-0.6,12.69,3.8,24.84,12.38,34.22l21.95,23.95
		C214.401,275.203,219.111,285.813,220.491,296.813z M205.121,329.543c8.71-13.18,10.03-29.41,4.4-43.4
		c-8.13,8.24-18.92,14.76-25.49,18.33c4.59,4,8.36,9.01,10.93,14.8c0.89,2.02-0.02,4.38-2.04,5.27c-2.02,0.9-4.38-0.02-5.28-2.04
		c-5.88-13.28-19.61-21.54-34.14-20.53c-16.31,1.12-29.59,13.71-31.82,29.7l11.1-10.46c7.33-6.93,17.58-9.37,27.29-6.46
		c9.3,2.78,16.38,10.37,19.05,19.7l1.06,3.7c0.09,0.04,0.19,0.07,0.29,0.11c8.99,3.22,19.02-0.2,24.38-8.32L205.121,329.543z
		 M205.641,278.593c-1.47-2.33-3.15-4.55-5.06-6.63l-12.55-13.7c-28.39,23.05-60.85,1.5-74.99-7.89c-1.29-0.86-2.44-1.62-3.44-2.25
		c-3.75-2.37-7.48-4.79-11.43-7.35c-21.71-14.05-45.94-29.73-80.11-42.09c27.74,30.74,47.42,66.2,59.51,91.88
		c7.38,15.68,22.97,26.1,40.18,27.09c6.56-13.22,19.78-22.6,35.2-23.67c8.43-0.58,16.64,1.37,23.71,5.31
		C181.791,296.703,196.641,288.703,205.641,278.593z M120.921,360.673c-2.32-3.36-4.15-7.04-5.44-10.94l-8.4,9.94
		C111.181,359.963,116.291,360.323,120.921,360.673z"/>
</g>
<g>
</g>
<g>
</g>
<g>
</g>
<g>
</g>
<g>
</g>
<g>
</g>
<g>
</g>
<g>
</g>
<g>
</g>
<g>
</g>
<g>
</g>
<g>
</g>
<g>
</g>
<g>
</g>
<g>
</g>
</svg>
